<svg width="38" height="31" viewBox="0 0 38 31" fill="none" xmlns="http://www.w3.org/2000/svg">
<path d="M6.87981 31H18.7879L24.7419 24.8L0.961947 24.8377L6.87981 31ZM18.7878 0H8.37988V6.2H24.7418L18.7878 0ZM6.87981 0L0.925781 6.2V23.2756H6.87981V0Z" fill="#3C3C3C"/>
<path d="M11.7435 15.1252C11.3528 15.1252 10.999 15.0394 10.682 14.8677C10.3687 14.6924 10.1218 14.4517 9.94116 14.1457C9.76424 13.8397 9.67578 13.4946 9.67578 13.1102C9.67578 12.7259 9.76608 12.3807 9.94669 12.0747C10.1273 11.7687 10.3742 11.5299 10.6875 11.3583C11.0045 11.1829 11.3584 11.0952 11.7491 11.0952C12.066 11.0952 12.3554 11.1512 12.6171 11.2631C12.8788 11.3751 13.0999 11.5374 13.2805 11.7501L12.8161 12.1923C12.536 11.8863 12.1914 11.7333 11.7822 11.7333C11.5169 11.7333 11.2791 11.793 11.069 11.9124C10.8589 12.0281 10.6949 12.1904 10.577 12.3994C10.459 12.6083 10.4 12.8453 10.4 13.1102C10.4 13.3752 10.459 13.6121 10.577 13.8211C10.6949 14.03 10.8589 14.1942 11.069 14.3136C11.2791 14.4293 11.5169 14.4871 11.7822 14.4871C12.1914 14.4871 12.536 14.3323 12.8161 14.0226L13.2805 14.4703C13.0999 14.683 12.8769 14.8454 12.6115 14.9573C12.3498 15.0692 12.0605 15.1252 11.7435 15.1252Z" fill="#3C3C3C"/>
<path d="M15.6961 15.1252C15.3017 15.1252 14.946 15.0394 14.6291 14.8677C14.3121 14.6924 14.0633 14.4517 13.8827 14.1457C13.7021 13.836 13.6118 13.4908 13.6118 13.1102C13.6118 12.7296 13.7021 12.3863 13.8827 12.0803C14.0633 11.7706 14.3121 11.5299 14.6291 11.3583C14.946 11.1829 15.3017 11.0952 15.6961 11.0952C16.0905 11.0952 16.4462 11.1829 16.7631 11.3583C17.0801 11.5299 17.3289 11.7687 17.5095 12.0747C17.6901 12.3807 17.7804 12.7259 17.7804 13.1102C17.7804 13.4946 17.6901 13.8397 17.5095 14.1457C17.3289 14.4517 17.0801 14.6924 16.7631 14.8677C16.4462 15.0394 16.0905 15.1252 15.6961 15.1252ZM15.6961 14.4871C15.9541 14.4871 16.1863 14.4293 16.3927 14.3136C16.5991 14.1942 16.7613 14.03 16.8792 13.8211C16.9972 13.6084 17.0562 13.3714 17.0562 13.1102C17.0562 12.849 16.9972 12.6139 16.8792 12.405C16.7613 12.1923 16.5991 12.0281 16.3927 11.9124C16.1863 11.793 15.9541 11.7333 15.6961 11.7333C15.4381 11.7333 15.2059 11.793 14.9995 11.9124C14.7931 12.0281 14.6309 12.1923 14.5129 12.405C14.395 12.6139 14.336 12.849 14.336 13.1102C14.336 13.3714 14.395 13.6084 14.5129 13.8211C14.6309 14.03 14.7931 14.1942 14.9995 14.3136C15.2059 14.4293 15.4381 14.4871 15.6961 14.4871Z" fill="#3C3C3C"/>
<path d="M20.1346 11.1512C20.47 11.1512 20.7611 11.2072 21.0081 11.3191C21.2587 11.431 21.4504 11.5915 21.5831 11.8005C21.7158 12.0094 21.7821 12.2576 21.7821 12.5449C21.7821 12.8285 21.7158 13.0766 21.5831 13.2893C21.4504 13.4983 21.2587 13.6587 21.0081 13.7707C20.7611 13.8826 20.47 13.9386 20.1346 13.9386H19.261V15.0692H18.5423V11.1512H20.1346ZM20.1014 13.3229C20.4147 13.3229 20.6524 13.2557 20.8146 13.1214C20.9768 12.9871 21.0578 12.7949 21.0578 12.5449C21.0578 12.2949 20.9768 12.1027 20.8146 11.9684C20.6524 11.834 20.4147 11.7669 20.1014 11.7669H19.261V13.3229H20.1014Z" fill="#3C3C3C"/>
<path d="M24.1695 13.6867V15.0692H23.4508V13.6979L21.9304 11.1512H22.6989L23.8323 13.0598L24.9767 11.1512H25.6844L24.1695 13.6867Z" fill="#3C3C3C"/>
<path d="M26.8862 11.7669H25.6035V11.1512H28.8876V11.7669H27.6049V15.0692H26.8862V11.7669Z" fill="#3C3C3C"/>
<path d="M32.3296 14.4591V15.0692H29.427V11.1512H32.2522V11.7613H30.1457V12.78H32.0144V13.3789H30.1457V14.4591H32.3296Z" fill="#3C3C3C"/>
<path d="M36.5697 11.1512V15.0692H35.9781L33.844 12.4162V15.0692H33.1308V11.1512H33.7224L35.8565 13.8043V11.1512H36.5697Z" fill="#3C3C3C"/>
<path d="M11.5445 16.3179C11.8799 16.3179 12.1711 16.3738 12.418 16.4858C12.6687 16.5977 12.8603 16.7582 12.993 16.9671C13.1257 17.1761 13.1921 17.4242 13.1921 17.7116C13.1921 17.9952 13.1257 18.2433 12.993 18.456C12.8603 18.665 12.6687 18.8254 12.418 18.9374C12.1711 19.0493 11.8799 19.1053 11.5445 19.1053H10.671V20.2359H9.95222V16.3179H11.5445ZM11.5113 18.4896C11.8246 18.4896 12.0624 18.4224 12.2245 18.2881C12.3867 18.1537 12.4678 17.9616 12.4678 17.7116C12.4678 17.4616 12.3867 17.2694 12.2245 17.135C12.0624 17.0007 11.8246 16.9335 11.5113 16.9335H10.671V18.4896H11.5113Z" fill="#3C3C3C"/>
<path d="M16.442 20.2359L15.6514 19.0885C15.6182 19.0922 15.5684 19.0941 15.5021 19.0941H14.6285V20.2359H13.9098V16.3179H15.5021C15.8375 16.3179 16.1287 16.3738 16.3756 16.4858C16.6263 16.5977 16.8179 16.7582 16.9506 16.9671C17.0833 17.1761 17.1496 17.4242 17.1496 17.7116C17.1496 18.0063 17.0778 18.2601 16.934 18.4728C16.794 18.6855 16.5912 18.8441 16.3259 18.9485L17.216 20.2359H16.442ZM16.4254 17.7116C16.4254 17.4616 16.3443 17.2694 16.1821 17.135C16.0199 17.0007 15.7822 16.9335 15.4689 16.9335H14.6285V18.4952H15.4689C15.7822 18.4952 16.0199 18.428 16.1821 18.2937C16.3443 18.1556 16.4254 17.9616 16.4254 17.7116Z" fill="#3C3C3C"/>
<path d="M19.7617 20.2919C19.3673 20.2919 19.0116 20.2061 18.6946 20.0344C18.3776 19.859 18.1288 19.6183 17.9482 19.3124C17.7676 19.0027 17.6773 18.6575 17.6773 18.2769C17.6773 17.8963 17.7676 17.553 17.9482 17.247C18.1288 16.9373 18.3776 16.6966 18.6946 16.525C19.0116 16.3496 19.3673 16.2619 19.7617 16.2619C20.156 16.2619 20.5117 16.3496 20.8287 16.525C21.1457 16.6966 21.3945 16.9354 21.5751 17.2414C21.7557 17.5474 21.846 17.8925 21.846 18.2769C21.846 18.6612 21.7557 19.0064 21.5751 19.3124C21.3945 19.6183 21.1457 19.859 20.8287 20.0344C20.5117 20.2061 20.156 20.2919 19.7617 20.2919ZM19.7617 19.6538C20.0197 19.6538 20.2519 19.596 20.4583 19.4803C20.6647 19.3609 20.8269 19.1967 20.9448 18.9877C21.0628 18.775 21.1217 18.5381 21.1217 18.2769C21.1217 18.0157 21.0628 17.7806 20.9448 17.5716C20.8269 17.3589 20.6647 17.1948 20.4583 17.0791C20.2519 16.9597 20.0197 16.9 19.7617 16.9C19.5037 16.9 19.2714 16.9597 19.065 17.0791C18.8586 17.1948 18.6965 17.3589 18.5785 17.5716C18.4606 17.7806 18.4016 18.0157 18.4016 18.2769C18.4016 18.5381 18.4606 18.775 18.5785 18.9877C18.6965 19.1967 18.8586 19.3609 19.065 19.4803C19.2714 19.596 19.5037 19.6538 19.7617 19.6538Z" fill="#3C3C3C"/>
<path d="M22.6078 16.3179H24.2996C24.7124 16.3179 25.0792 16.3999 25.3999 16.5641C25.7205 16.7246 25.9693 16.9541 26.1462 17.2526C26.3232 17.5474 26.4116 17.8888 26.4116 18.2769C26.4116 18.665 26.3232 19.0083 26.1462 19.3068C25.9693 19.6016 25.7205 19.831 25.3999 19.9952C25.0792 20.1557 24.7124 20.2359 24.2996 20.2359H22.6078V16.3179ZM24.2665 19.6202C24.5503 19.6202 24.7991 19.5661 25.0128 19.4579C25.2303 19.346 25.3962 19.1892 25.5104 18.9877C25.6284 18.7825 25.6873 18.5455 25.6873 18.2769C25.6873 18.0082 25.6284 17.7731 25.5104 17.5716C25.3962 17.3664 25.2303 17.2097 25.0128 17.1015C24.7991 16.9895 24.5503 16.9335 24.2665 16.9335H23.3266V19.6202H24.2665Z" fill="#3C3C3C"/>
</svg>
