<svg width="127" height="127" viewBox="0 0 127 127" fill="none" xmlns="http://www.w3.org/2000/svg">
<path d="M124.952 38.9194C125.495 38.9194 126.016 38.7035 126.4 38.3194C126.784 37.9352 127 37.4142 127 36.871V28.6774C127 28.1342 126.784 27.6131 126.4 27.229C126.016 26.8448 125.495 26.629 124.952 26.629H110.613V23.5565C110.611 21.6557 109.855 19.8333 108.511 18.4893C107.167 17.1452 105.344 16.3892 103.444 16.3871H100.371V2.04839C100.371 1.50512 100.155 0.984106 99.771 0.599959C99.3869 0.215812 98.8658 0 98.3226 0H90.129C89.5858 0 89.0648 0.215812 88.6806 0.599959C88.2965 0.984106 88.0806 1.50512 88.0806 2.04839V16.3871H79.8871V2.04839C79.8871 1.50512 79.6713 0.984106 79.2871 0.599959C78.903 0.215812 78.382 0 77.8387 0H69.6452C69.1019 0 68.5809 0.215812 68.1967 0.599959C67.8126 0.984106 67.5968 1.50512 67.5968 2.04839V16.3871H59.4032V2.04839C59.4032 1.50512 59.1874 0.984106 58.8033 0.599959C58.4191 0.215812 57.8981 0 57.3548 0H49.1613C48.618 0 48.097 0.215812 47.7129 0.599959C47.3287 0.984106 47.1129 1.50512 47.1129 2.04839V16.3871H38.9194V2.04839C38.9194 1.50512 38.7035 0.984106 38.3194 0.599959C37.9352 0.215812 37.4142 0 36.871 0H28.6774C28.1342 0 27.6131 0.215812 27.229 0.599959C26.8448 0.984106 26.629 1.50512 26.629 2.04839V16.3871H23.5565C21.6557 16.3892 19.8333 17.1452 18.4893 18.4893C17.1452 19.8333 16.3892 21.6557 16.3871 23.5565V26.629H2.04839C1.50512 26.629 0.984106 26.8448 0.599959 27.229C0.215812 27.6131 0 28.1342 0 28.6774V36.871C0 37.4142 0.215812 37.9352 0.599959 38.3194C0.984106 38.7035 1.50512 38.9194 2.04839 38.9194H16.3871V47.1129H2.04839C1.50512 47.1129 0.984106 47.3287 0.599959 47.7129C0.215812 48.097 0 48.618 0 49.1613V57.3548C0 57.8981 0.215812 58.4191 0.599959 58.8033C0.984106 59.1874 1.50512 59.4032 2.04839 59.4032H16.3871V67.5968H2.04839C1.50512 67.5968 0.984106 67.8126 0.599959 68.1967C0.215812 68.5809 0 69.1019 0 69.6452V77.8387C0 78.382 0.215812 78.903 0.599959 79.2871C0.984106 79.6713 1.50512 79.8871 2.04839 79.8871H16.3871V88.0806H2.04839C1.50512 88.0806 0.984106 88.2965 0.599959 88.6806C0.215812 89.0648 0 89.5858 0 90.129V98.3226C0 98.8658 0.215812 99.3869 0.599959 99.771C0.984106 100.155 1.50512 100.371 2.04839 100.371H16.3871V103.444C16.3892 105.344 17.1452 107.167 18.4893 108.511C19.8333 109.855 21.6557 110.611 23.5565 110.613H26.629V124.952C26.629 125.495 26.8448 126.016 27.229 126.4C27.6131 126.784 28.1342 127 28.6774 127H36.871C37.4142 127 37.9352 126.784 38.3194 126.4C38.7035 126.016 38.9194 125.495 38.9194 124.952V110.613H47.1129V124.952C47.1129 125.495 47.3287 126.016 47.7129 126.4C48.097 126.784 48.618 127 49.1613 127H57.3548C57.8981 127 58.4191 126.784 58.8033 126.4C59.1874 126.016 59.4032 125.495 59.4032 124.952V110.613H67.5968V124.952C67.5968 125.495 67.8126 126.016 68.1967 126.4C68.5809 126.784 69.1019 127 69.6452 127H77.8387C78.382 127 78.903 126.784 79.2871 126.4C79.6713 126.016 79.8871 125.495 79.8871 124.952V110.613H88.0806V124.952C88.0806 125.495 88.2965 126.016 88.6806 126.4C89.0648 126.784 89.5858 127 90.129 127H98.3226C98.8658 127 99.3869 126.784 99.771 126.4C100.155 126.016 100.371 125.495 100.371 124.952V110.613H103.444C105.344 110.611 107.167 109.855 108.511 108.511C109.855 107.167 110.611 105.344 110.613 103.444V100.371H124.952C125.495 100.371 126.016 100.155 126.4 99.771C126.784 99.3869 127 98.8658 127 98.3226V90.129C127 89.5858 126.784 89.0648 126.4 88.6806C126.016 88.2965 125.495 88.0806 124.952 88.0806H110.613V79.8871H124.952C125.495 79.8871 126.016 79.6713 126.4 79.2871C126.784 78.903 127 78.382 127 77.8387V69.6452C127 69.1019 126.784 68.5809 126.4 68.1967C126.016 67.8126 125.495 67.5968 124.952 67.5968H110.613V59.4032H124.952C125.495 59.4032 126.016 59.1874 126.4 58.8033C126.784 58.4191 127 57.8981 127 57.3548V49.1613C127 48.618 126.784 48.097 126.4 47.7129C126.016 47.3287 125.495 47.1129 124.952 47.1129H110.613V38.9194H124.952ZM110.613 30.7258H122.903V34.8226H110.613V30.7258ZM16.3871 96.2742H4.09677V92.1774H16.3871V96.2742ZM16.3871 75.7903H4.09677V71.6936H16.3871V75.7903ZM16.3871 55.3064H4.09677V51.2097H16.3871V55.3064ZM16.3871 34.8226H4.09677V30.7258H16.3871V34.8226ZM92.1774 4.09677H96.2742V16.3871H92.1774V4.09677ZM71.6936 4.09677H75.7903V16.3871H71.6936V4.09677ZM51.2097 4.09677H55.3064V16.3871H51.2097V4.09677ZM30.7258 4.09677H34.8226V16.3871H30.7258V4.09677ZM34.8226 122.903H30.7258V110.613H34.8226V122.903ZM55.3064 122.903H51.2097V110.613H55.3064V122.903ZM75.7903 122.903H71.6936V110.613H75.7903V122.903ZM96.2742 122.903H92.1774V110.613H96.2742V122.903ZM106.516 103.444C106.515 104.258 106.192 105.039 105.615 105.615C105.039 106.192 104.258 106.515 103.444 106.516H23.5565C22.7418 106.515 21.9606 106.192 21.3846 105.615C20.8085 105.039 20.4845 104.258 20.4839 103.444V23.5565C20.4845 22.7418 20.8085 21.9606 21.3846 21.3846C21.9606 20.8085 22.7418 20.4845 23.5565 20.4839H103.444C104.258 20.4845 105.039 20.8085 105.615 21.3846C106.192 21.9606 106.515 22.7418 106.516 23.5565V103.444ZM122.903 92.1774V96.2742H110.613V92.1774H122.903ZM122.903 71.6936V75.7903H110.613V71.6936H122.903ZM122.903 51.2097V55.3064H110.613V51.2097H122.903Z" fill="url(#paint0_linear_1402_22568)"/>
<path d="M63.4999 45.0649C59.8538 45.0649 56.2894 46.1462 53.2577 48.1719C50.226 50.1976 47.8631 53.0768 46.4678 56.4455C45.0724 59.8141 44.7074 63.5209 45.4187 67.097C46.13 70.6731 47.8858 73.958 50.4641 76.5363C53.0423 79.1145 56.3272 80.8703 59.9034 81.5817C63.4795 82.293 67.1863 81.9279 70.5549 80.5326C73.9235 79.1372 76.8028 76.7743 78.8285 73.7426C80.8542 70.7109 81.9354 67.1466 81.9354 63.5004C81.9298 58.6128 79.9857 53.9269 76.5296 50.4708C73.0735 47.0147 68.3876 45.0706 63.4999 45.0649ZM63.4999 77.8391C60.664 77.8391 57.8918 76.9982 55.5338 75.4226C53.1758 73.8471 51.338 71.6077 50.2527 68.9876C49.1674 66.3676 48.8835 63.4845 49.4367 60.7031C49.99 57.9216 51.3556 55.3667 53.3609 53.3614C55.3663 51.3561 57.9212 49.9905 60.7026 49.4372C63.484 48.884 66.3671 49.1679 68.9871 50.2532C71.6072 51.3384 73.8466 53.1763 75.4221 55.5343C76.9977 57.8923 77.8387 60.6645 77.8387 63.5004C77.8345 67.302 76.3224 70.9467 73.6343 73.6348C70.9462 76.3229 67.3015 77.8349 63.4999 77.8391Z" fill="url(#paint1_linear_1402_22568)"/>
<path d="M63.5006 38.9194C58.639 38.9194 53.8866 40.3611 49.8443 43.062C45.802 45.763 42.6515 49.6019 40.791 54.0935C38.9306 58.585 38.4438 63.5273 39.3922 68.2955C40.3407 73.0637 42.6818 77.4436 46.1194 80.8812C49.5571 84.3189 53.937 86.66 58.7051 87.6084C63.4733 88.5569 68.4157 88.0701 72.9072 86.2096C77.3987 84.3492 81.2377 81.1986 83.9386 77.1564C86.6396 73.1141 88.0812 68.3617 88.0812 63.5001C88.0734 56.9833 85.4812 50.7356 80.8731 46.1275C76.265 41.5195 70.0174 38.9272 63.5006 38.9194ZM63.5006 83.9839C59.4492 83.9839 55.4889 82.7826 52.1203 80.5318C48.7518 78.281 46.1263 75.0819 44.5759 71.3389C43.0256 67.596 42.6199 63.4774 43.4103 59.5039C44.2007 55.5304 46.1516 51.8805 49.0163 49.0158C51.881 46.1511 55.5309 44.2002 59.5044 43.4098C63.4779 42.6194 67.5965 43.0251 71.3394 44.5754C75.0824 46.1258 78.2815 48.7513 80.5323 52.1199C82.7831 55.4884 83.9844 59.4488 83.9844 63.5001C83.9781 68.9308 81.818 74.1373 77.9779 77.9774C74.1378 81.8175 68.9313 83.9776 63.5006 83.9839Z" fill="url(#paint2_linear_1402_22568)"/>
<path d="M96.2745 28.6772H30.7261C30.1829 28.6772 29.6618 28.8931 29.2777 29.2772C28.8935 29.6614 28.6777 30.1824 28.6777 30.7256V96.274C28.6777 96.8173 28.8935 97.3383 29.2777 97.7225C29.6618 98.1066 30.1829 98.3224 30.7261 98.3224H96.2745C96.8178 98.3224 97.3388 98.1066 97.7229 97.7225C98.1071 97.3383 98.3229 96.8173 98.3229 96.274V30.7256C98.3229 30.1824 98.1071 29.6614 97.7229 29.2772C97.3388 28.8931 96.8178 28.6772 96.2745 28.6772ZM94.2261 94.2256H32.7745V32.774H94.2261V94.2256Z" fill="url(#paint3_linear_1402_22568)"/>
<path d="M71.6937 67.5966C71.6916 69.2257 71.0434 70.7875 69.8915 71.9395C68.7395 73.0914 67.1777 73.7396 65.5486 73.7417C65.5486 74.285 65.3328 74.806 64.9486 75.1902C64.5645 75.5743 64.0435 75.7901 63.5002 75.7901C62.9569 75.7901 62.4359 75.5743 62.0518 75.1902C61.6676 74.806 61.4518 74.285 61.4518 73.7417H57.355C56.8118 73.7417 56.2907 73.5259 55.9066 73.1418C55.5225 72.7576 55.3066 72.2366 55.3066 71.6933C55.3066 71.1501 55.5225 70.6291 55.9066 70.2449C56.2907 69.8608 56.8118 69.645 57.355 69.645H65.5486C66.0916 69.6442 66.6122 69.4282 66.9962 69.0442C67.3802 68.6602 67.5962 68.1396 67.597 67.5966C67.597 66.5237 66.4985 65.5482 65.2925 65.5482H61.4518C59.822 65.5482 58.259 64.9007 57.1065 63.7483C55.9541 62.5959 55.3066 61.0328 55.3066 59.403C55.3066 57.7732 55.9541 56.2102 57.1065 55.0577C58.259 53.9053 59.822 53.2579 61.4518 53.2579C61.4518 52.7146 61.6676 52.1936 62.0518 51.8094C62.4359 51.4253 62.9569 51.2095 63.5002 51.2095C64.0435 51.2095 64.5645 51.4253 64.9486 51.8094C65.3328 52.1936 65.5486 52.7146 65.5486 53.2579H69.6453C70.1886 53.2579 70.7096 53.4737 71.0938 53.8578C71.4779 54.242 71.6937 54.763 71.6937 55.3062C71.6937 55.8495 71.4779 56.3705 71.0938 56.7547C70.7096 57.1388 70.1886 57.3546 69.6453 57.3546H61.4518C60.9085 57.3546 60.3875 57.5704 60.0034 57.9546C59.6192 58.3387 59.4034 58.8598 59.4034 59.403C59.4034 59.9463 59.6192 60.4673 60.0034 60.8515C60.3875 61.2356 60.9085 61.4514 61.4518 61.4514H65.2925C68.762 61.4514 71.6937 64.2654 71.6937 67.5966Z" fill="url(#paint4_linear_1402_22568)"/>
<defs>
<linearGradient id="paint0_linear_1402_22568" x1="-15.0786" y1="150.998" x2="126.151" y2="-15.5033" gradientUnits="userSpaceOnUse">
<stop stop-color="#511468"/>
<stop offset="0.489583" stop-color="#A96BD9"/>
<stop offset="1" stop-color="#511468"/>
</linearGradient>
<linearGradient id="paint1_linear_1402_22568" x1="40.6868" y1="88.9032" x2="81.6888" y2="40.564" gradientUnits="userSpaceOnUse">
<stop stop-color="#511468"/>
<stop offset="0.489583" stop-color="#A96BD9"/>
<stop offset="1" stop-color="#511468"/>
</linearGradient>
<linearGradient id="paint2_linear_1402_22568" x1="33.083" y1="97.3704" x2="87.7524" y2="32.9181" gradientUnits="userSpaceOnUse">
<stop stop-color="#511468"/>
<stop offset="0.489583" stop-color="#A96BD9"/>
<stop offset="1" stop-color="#511468"/>
</linearGradient>
<linearGradient id="paint3_linear_1402_22568" x1="20.4088" y1="111.483" x2="97.857" y2="20.1754" gradientUnits="userSpaceOnUse">
<stop stop-color="#511468"/>
<stop offset="0.489583" stop-color="#A96BD9"/>
<stop offset="1" stop-color="#511468"/>
</linearGradient>
<linearGradient id="paint4_linear_1402_22568" x1="53.361" y1="80.435" x2="80.2823" y2="59.2757" gradientUnits="userSpaceOnUse">
<stop stop-color="#511468"/>
<stop offset="0.489583" stop-color="#A96BD9"/>
<stop offset="1" stop-color="#511468"/>
</linearGradient>
</defs>
</svg>
